<?xml version="1.0" encoding="UTF-8"?>
<svg id="Layer_1" xmlns="http://www.w3.org/2000/svg" version="1.1" viewBox="0 0 665.9 216">
  <!-- Generator: Adobe Illustrator 29.2.1, SVG Export Plug-In . SVG Version: 2.1.0 Build 116)  -->
  <defs>
    <style>
      .st0 {
        fill: #fff;
      }

      .st1 {
        fill: #b69e7b;
      }
    </style>
  </defs>
  <path class="st0" d="M97,112.8c-6.1-5.1-7.7-11.8-7.7-17.5s1.3-11,7.2-16.2c4.5-3.9,10.3-6.3,19.5-6.3s6.1.3,8.9.6c2.3.3,4.3.8,6.1,1,.7,0,.9.3.9.7s-.1,1.2-.3,3.3c-.1,2-.1,5.2-.2,6.4,0,.8-.3,1.5-.8,1.5s-.6-.5-.6-1.3c0-1.9-.8-4-2.4-5.5-2.1-2-6.2-3.5-11.9-3.5s-8.8,1-11.6,3.3c-4.5,3.9-5.7,9.6-5.7,15.4,0,14.1,10.9,20.8,19.1,20.8s8.4-.4,10.9-3.1c1.1-1.2,1.9-2.9,2.1-4,.1-.9.3-1.2.8-1.2s.7.6.7,1c0,.7-.7,5.9-1.3,7.9-.3,1.1-.6,1.3-1.6,1.8-2.4,1-7.1,1.3-11.1,1.3-8.4,0-15.5-1.8-21.1-6.4"/>
  <path class="st0" d="M139.9,96c0-10.1,7.1-23.2,25.7-23.2s25.1,8.6,25.1,22.2-9.9,24.3-25.7,24.3-25.1-12.7-25.1-23.2M181.6,97.1c0-13.1-7.9-21.2-17.8-21.2s-14.9,3.6-14.9,18.3,7,21.8,18.6,21.8,14.1-2,14.1-18.9"/>
  <path class="st0" d="M198.4,96c0-10.1,7.1-23.2,25.7-23.2s25.1,8.6,25.1,22.2-9.9,24.3-25.7,24.3-25.1-12.7-25.1-23.2M240.1,97.1c0-13.1-7.9-21.2-17.8-21.2s-14.9,3.6-14.9,18.3,7,21.8,18.6,21.8,14.1-2,14.1-18.9"/>
  <path class="st0" d="M260,90.7c0-9,0-10.7,0-12.6-.1-2-.7-2.7-2.6-3.2-.5-.1-1.5-.2-2.4-.2s-1-.2-1-.6.5-.6,1.4-.6c3.2,0,7.1.1,8.8.1,2.5,0,7.4-.1,10.2-.1,7.7,0,10.5,2.5,11.4,3.3,1.3,1.3,3.1,3.9,3.1,7.1,0,8.4-6.7,14.4-15.4,14.4s-1.5,0-1.8,0c-.4,0-.8-.2-.8-.6s.7-.8,2-.8c3.4,0,8.2-3.6,8.2-9.6s-.2-5.9-3.6-8.8c-2.2-1.9-4.7-2.2-6.1-2.2s-2.1,0-2.6.3c-.4.1-.5.5-.5,1.1v23.5c0,5.4,0,10.1.3,12.7.2,1.7.5,2.8,2.4,3.1s2.2.2,3.1.2,1,.3,1,.6c0,.4-.5.6-1.1.6-4.1,0-8.4-.2-10-.2s-5.3.2-7.7.2-1.2-.2-1.2-.6.2-.6,1-.6,1.6,0,2.2-.2c1.3-.3,1.6-1.4,1.8-3.1.3-2.5.3-7.2.3-12.6v-10.5h0Z"/>
  <path class="st0" d="M299.5,90.7c0-9,0-10.7,0-12.6-.1-2-.7-2.7-2.6-3.2-.5-.1-1.5-.2-2.4-.2s-1-.2-1-.6.5-.6,1.4-.6c3.2,0,7.1.1,8.9.1s15.6,0,16.7,0c1.1,0,2.1-.3,2.6-.3.4,0,.7-.3,1-.3s.4.3.4.6c0,.4-.4,1.1-.5,3.8,0,.6-.2,3.2-.4,3.9,0,.3-.2,1-.7,1s-.5-.3-.5-.8,0-1.5-.4-2.2c-.5-1.1-1-1.9-4-2.2-1-.1-8.4-.3-9.6-.3s-.4.2-.4.6v14.7c0,.3,0,.6.4.6,1.4,0,9.4,0,10.7-.1,1.5-.1,2.4-.3,2.9-.9.5-.4.7-.8,1-.8s.5.3.5.6-.1,1.3-.5,4.3c-.1,1.2-.3,3.6-.3,4s0,1.3-.6,1.3-.6-.2-.6-.5c0-.6,0-1.4-.2-2.2-.4-1.2-1.1-2.1-3.4-2.3-1.1-.1-8.1-.3-9.6-.3s-.4.3-.4.6v4.8c0,2,0,7.1,0,8.8.1,4.1,2,4.9,8.3,4.9s4.2,0,5.8-.8c1.5-.7,2.2-1.9,2.6-4.4.1-.6.3-.9.7-.9s.6.8.6,1.4c0,1.3-.5,5.4-.8,6.6-.4,1.5-1,1.5-3.3,1.5-4.6,0-8.3,0-11.3-.2-3,0-5.3-.1-7.1-.1s-2,0-3.5,0c-1.5,0-3,.1-4.2.1s-1.2-.2-1.2-.6.2-.6,1-.6,1.6,0,2.2-.2c1.3-.3,1.6-1.4,1.8-3.1.3-2.5.3-7.2.3-12.6v-10.5h0Z"/>
  <path class="st0" d="M338.9,90.7c0-9,0-10.7,0-12.6-.1-2-.7-2.7-2.6-3.2-.5-.1-1.5-.2-2.4-.2s-1-.2-1-.6.5-.6,1.4-.6c3.2,0,7.1.1,8.4.1,2.1,0,7.7-.1,9.6-.1,3.9,0,8.4.3,11.6,2.5,1.8,1.2,4.3,4.2,4.3,8.2s-2.5,8.3-8.5,13.1c5.4,6.7,9.8,12.1,13.5,15.8,3.4,3.4,5.6,3.7,6.6,3.9.6.1,1,.1,1.5.1s.8.3.8.6c0,.5-.4.6-1.2.6h-5.9c-3.4,0-5.1-.3-6.7-1.2-2.6-1.3-5-4.1-8.4-8.7-2.4-3.2-5-7.2-5.8-8.1-.4-.3-.7-.4-1.1-.4h-5.5c-.3-.1-.5,0-.5.3v.8c0,5.5,0,10.1.4,12.6.2,1.7.5,2.9,2.4,3.1.9.1,2.2.2,3,.2s.8.3.8.6c0,.4-.5.6-1.3.6-3.5,0-8.6-.2-9.6-.2s-5.1.2-7.5.2-1.2-.2-1.2-.6.2-.6,1-.6,1.6,0,2.2-.2c1.3-.3,1.6-1.4,1.8-3.1.3-2.5.3-7.2.3-12.6v-10.5h0ZM346.8,95.3c0,.6.1.8.5,1.1,1.3.4,3.1.6,4.7.6,2.4,0,3.3-.2,4.3-1,1.9-1.3,4-3.9,4-8.8,0-8.4-5.7-10.5-9.4-10.5s-3,0-3.6.2c-.4.1-.5.3-.5.8v17.7h0Z"/>
  <path class="st0" d="M378.3,64.5c-.7-.7-.8-.9-.8-1.3s.4-.6.8-.6c1.4,0,4.5.9,5.8,1.3,1.7.5,2,1,2,2,0,4.3-4.5,11.7-7.7,14.9-.4.4-.7.6-1.1.6s-.4-.1-.4-.4,0-.3.4-.9c1.3-2.4,2.7-6.6,2.7-10.9s-1-4.2-1.7-4.8"/>
  <path class="st0" d="M393.1,117.7c-1-.4-1.2-.7-1.2-2,0-3.2.3-6.9.3-7.9,0-.9.3-1.5.8-1.5s.6.6.6,1c0,.8.2,2,.6,3.1,1.3,4.4,5.9,5.9,9.8,5.9s8.5-3.3,8.5-7.5-.6-5.2-6.1-8.4l-3.6-2.1c-7.3-4.3-9.6-8.2-9.6-13.5s7-11.9,15.5-11.9,7.1.6,8.7,1c.6.1.8.3.8.8,0,.8-.2,2.4-.2,7.1s-.3,1.9-.8,1.9-.6-.3-.6-1-.3-2.4-1.6-3.9c-.9-1.1-2.9-2.8-6.8-2.8s-8.4,2.3-8.4,6.3,1,4.8,6.5,7.8l2.5,1.4c8.1,4.5,10.6,9,10.6,14.4s-1.7,7.9-6.1,11.1c-2.9,2.1-7,2.4-10.2,2.4s-7.3-.3-10-1.5"/>
  <path class="st0" d="M479.8,92.9c.1,0,.3,0,.3-.4v-1.2c0-9,0-11.2-.1-13.1-.1-2-.7-2.7-2.6-3.2-.5-.1-1.5-.2-2.4-.2s-1-.2-1-.6.4-.6,1.3-.6c3.3,0,7.6.1,9.2.1s5.5-.1,7.9-.1,1.3.1,1.3.6-.4.6-1.1.6-1,0-1.8.2c-1.6.3-2.1,1.1-2.2,3.2-.1,1.9-.1,3.6-.1,12.6v10.5c0,5.4,0,10.1.3,12.7.2,1.7.6,2.8,2.4,3.1.8.1,1.9.2,2.9.2s1,.3,1,.6c0,.4-.5.6-1.3.6-4,0-7.8-.2-9.5-.2s-5.7.2-8.1.2-1.3-.2-1.3-.6.3-.6,1-.6,1.7,0,2.2-.2c1.3-.3,1.6-1.4,1.8-3.1.3-2.5.3-7,.3-12.5v-4.5c0-.2-.2-.3-.3-.3h-23.2c-.2,0-.4,0-.4.3v4.5c0,5.4,0,10,.4,12.6.2,1.7.6,2.8,2.4,3.1.8.1,2.2.2,3.1.2s1,.3,1,.6c0,.4-.5.6-1.2.6-4,0-8.2-.2-10-.2s-5.4.2-7.9.2-1.2-.2-1.2-.6.2-.6,1-.6,1.6,0,2.2-.2c1.3-.3,1.6-1.4,1.8-3.1.3-2.5.3-7.2.3-12.6v-10.5c0-9,0-10.7,0-12.6-.1-2-.7-2.7-2.6-3.2-.5-.1-1.5-.2-2.4-.2s-1-.2-1-.6.5-.6,1.3-.6c3.3,0,7.3.1,9,.1s5.7-.1,8.2-.1,1.3.1,1.3.6-.3.6-1.1.6-1,0-1.7.2c-1.7.3-2.2,1.1-2.3,3.2-.1,1.9-.1,4-.1,13.1v1.2c0,.3.2.4.4.4h23.2Z"/>
  <path class="st0" d="M511.9,103.5c-.4,0-.4,0-.6.4l-3.3,7.9c-.6,1.5-.9,2.9-.9,3.6,0,1.1.6,1.7,2.4,1.7h.9c.8,0,.9.3.9.6s-.4.6-1,.6c-2,0-4.9-.2-6.8-.2s-3.9.2-7.1.2-.9-.1-.9-.6.2-.6.7-.6,1,0,1.6,0c2.8-.4,3.8-2.2,5.1-5.2l16.1-37.3c.7-1.7,1.2-2.4,1.8-2.4.9,0,1.2.6,1.8,1.9,1.5,3.3,11.7,27.5,15.6,36.5,2.4,5.4,4.1,6.1,5.2,6.3.9.1,1.6.2,2.3.2s.8.2.8.6-.3.6-2.7.6-6.6,0-11.8-.1c-1.1,0-1.8,0-1.8-.5s.1-.6.8-.6c.4,0,.8-.6.6-1.3l-4.7-11.9c-.1-.3-.3-.4-.6-.4h-14.4ZM525,100.2c.3,0,.3-.1.3-.3l-5.8-15.1c0-.2-.1-.6-.3-.6-.2,0-.3.3-.3.6l-5.9,15c-.1.3,0,.4.2.4h11.9,0Z"/>
  <path class="st0" d="M544.8,79.4c-.8-2.2-1.2-3.6-2.2-4.1-.6-.4-1.8-.5-2.4-.5s-1-.2-1-.6.5-.6,1.4-.6c3.1,0,6.6.1,7.1.1s3.6-.1,7.1-.1,1.3.1,1.3.6-.5.6-1.1.6-1,0-1.5.3c-.6.2-.6.6-.6,1.2s.6,2.7,1.3,5.4c1,3.9,6.6,21.8,7.5,24.6h.2l11.7-30.3c.6-1.7,1.3-2.2,1.8-2.2s1.3.9,2,2.8l12.3,29.2h.2c1.2-3.4,5.9-19,8-25.9.4-1.4.6-2.6.6-3.4s-.6-1.7-3-1.7-1-.3-1-.6.5-.6,1.5-.6c3.2,0,6,.1,6.5.1s3.1-.1,5.1-.1,1.1.1,1.1.5-.3.7-.8.7-1.5,0-2.2.3c-1.5.6-2.2,2.8-3.4,6.2-2.9,7.5-9.1,26.3-12.1,35.2-.7,2.1-1,2.8-2,2.8s-1.2-.7-2.2-2.9l-12.5-29.2h-.1c-1,2.5-9.3,23.5-11.8,28.9-1.1,2.4-1.5,3.1-2.4,3.1s-1.1-.6-1.7-2.2l-13-37.7h0Z"/>
  <path class="st0" d="M626.5,93.4h.3c2.1-2.2,11-11,12.8-13,1.8-1.9,3.1-3.3,3.1-4.4s-.3-1.1-.8-1.2-.8-.3-.8-.6.3-.6,1-.6c1.3,0,4.7.1,6.3.1s5.3-.1,7.2-.1,1,.1,1,.6-.3.6-.9.6c-.9,0-2.4.3-3.5.7-2,.7-3.9,2-6.5,4.4-2,1.8-11.1,10.5-13,12.6,2.2,2.8,14.2,15.3,16.6,17.6,2.7,2.4,5.1,5,8.4,6.3,1.8.8,3.1.8,3.8.8s.8.3.8.6-.3.6-1.5.6h-5.4c-1.8,0-2.9,0-4.3-.1-3.3-.3-5.3-1.5-8-3.8-2.7-2.3-14.4-16-15.8-17.8l-.6-.8h-.3v5.4c0,5.4,0,10.1.1,12.7.1,1.7.7,2.8,2.2,3.1.8.1,2.2.2,3,.2s.8.3.8.6c0,.4-.5.6-1.2.6-3.4,0-7.8-.2-9.3-.2s-5.3.2-7.7.2-1.2-.2-1.2-.6.2-.6,1-.6,1.6,0,2.2-.2c1.2-.3,1.6-1.4,1.8-3.1.3-2.5.3-7.2.3-12.6v-10.5c0-9,0-10.7,0-12.6-.1-2-.7-2.7-2.7-3.2-.5-.1-1.5-.2-2.5-.2s-1-.2-1-.6.5-.6,1.4-.6c3.2,0,7.1.1,8.6.1s5.9-.1,7.9-.1,1.3.1,1.3.6-.4.6-.8.6-1,0-1.7.2c-1.7.3-2.2,1.1-2.3,3.2,0,1.9,0,3.6,0,12.6v2.7Z"/>
  <path class="st0" d="M91.6,141.3h3l1.6,10.6.2,1.6c.1.8.2,1.6.3,2.3l.2,1.9s0,.1,0,.3c0,.1,0,.3,0,.5v-.7c.2-1.3.3-2.5.4-3.6.1-1.1.3-2.1.4-3l1.6-9.9h2.4l1.5,9.6c.2,1.4.4,2.7.6,3.9.2,1.2.3,2.4.4,3.5,0-1.2.2-2.3.3-3.4.1-1.1.3-2.1.4-3.2l.2-1.5,1.3-8.9h2.9l-4,22.8h-2.4l-1.6-9.9s0-.2,0-.5c0-.3,0-.7-.2-1.2l-.3-2.3c0-.2,0-.4,0-.8,0-.4,0-.8-.1-1.4v-.9c0,.2-.1.4-.1.6,0,.2,0,.3,0,.4,0,.6,0,1.1-.1,1.5,0,.4,0,.6,0,.7l-.3,2.2c0,.5-.1.9-.2,1.2,0,.3,0,.5,0,.5l-1.7,9.9h-2.5l-3.9-22.8h0Z"/>
  <rect class="st0" x="130.3" y="141.3" width="2.7" height="22.8"/>
  <path class="st0" d="M155.7,141.3h2.9l3.1,9.1c.9,2.6,1.7,5.3,2.4,8.2-.2-1.8-.4-3.4-.6-4.8-.1-1.4-.2-2.8-.2-4v-8.5h3.1v22.8h-2.9l-3.4-10.3c-.3-.9-.6-1.9-.9-2.9-.3-1-.5-2.1-.8-3.2,0-.1,0-.3-.1-.5,0-.2-.1-.4-.2-.7,0,.2,0,.5,0,.6,0,.2,0,.3,0,.5l.2,2.3.2,2.8c0,.2,0,.4,0,.6v.8l.2,9.9h-3v-22.8h0Z"/>
  <polygon class="st0" points="188.8 141.3 196.9 141.3 196.9 144 191.8 144 191.8 151.2 196.4 151.2 196.4 153.8 191.8 153.8 191.8 161.6 196.9 161.6 196.9 164.2 188.8 164.2 188.8 141.3"/>
  <path class="st0" d="M218.7,141.3h4c1.7,0,2.9.4,3.7,1.2,1,1,1.6,2.6,1.6,4.8s-.3,2.9-.8,3.9c-.6,1-1.3,1.6-2.3,1.8l4.2,11.1h-3.1l-4.2-11.2v11.2h-3.1v-22.8h0ZM221.8,151.5c1.2,0,2-.3,2.5-.8.5-.6.7-1.5.7-2.8s0-1.3-.2-1.8-.3-.9-.5-1.2c-.2-.3-.5-.6-.9-.7-.3-.1-.8-.2-1.2-.2h-.5v7.6h0Z"/>
  <path class="st0" d="M248.3,141.3h3.3l1.5,5c0,.1.1.3.1.5,0,.2.1.4.2.6.6,1.8.9,3.3,1.1,4.5.2-1.2.3-2.1.4-2.6l.5-2,.2-.8,1.3-5.2h3.2l-4,13v9.8h-3.1v-9.8l-4.8-13h0Z"/>
  <path class="st0" d="M306.3,155.4l2,1.6-2.4,3.4,2.4,3.8h-3.4l-1.1-1.8c-1.1,1.3-2.4,1.9-3.9,1.9s-2.6-.5-3.6-1.6c-1-1.1-1.5-2.4-1.5-3.9s.2-2,.7-2.9c.5-.9,1.3-2,2.5-3.2-1.2-1.9-1.8-3.7-1.8-5.4s.4-2.3,1.2-3.1c.8-.8,1.9-1.2,3.2-1.2s2.4.4,3.1,1.1c.8.8,1.2,1.7,1.2,3s-.2,2-.7,2.8c-.2.4-.6.9-1,1.4-.4.6-1,1.2-1.7,1.9l3,4.9,1.9-2.6h0ZM299.3,155.1c-1.1,1.3-1.7,2.4-1.7,3.6s.2,1.6.8,2.2c.5.6,1.1.9,1.8.9s1.6-.5,2.3-1.4l-3.2-5.2ZM300.1,150.8c.4-.4.8-.8,1.1-1.2.3-.3.5-.6.6-.9.3-.5.5-1.1.5-1.7s-.1-1-.5-1.3c-.3-.3-.7-.5-1.2-.5s-.9.2-1.3.6c-.4.4-.5.8-.5,1.4,0,.8.4,2,1.3,3.6"/>
  <path class="st0" d="M346.6,141.3h4c1.7,0,2.9.4,3.7,1.2,1,1,1.6,2.6,1.6,4.8s-.3,2.9-.8,3.9-1.3,1.6-2.3,1.8l4.2,11.1h-3.1l-4.2-11.2v11.2h-3.1v-22.8ZM349.7,151.5c1.2,0,2-.3,2.5-.8.5-.6.7-1.5.7-2.8s0-1.3-.2-1.8c-.1-.5-.3-.9-.5-1.2-.2-.3-.5-.6-.9-.7s-.8-.2-1.2-.2h-.5v7.6Z"/>
  <polygon class="st0" points="378.3 141.3 386.5 141.3 386.5 144 381.4 144 381.4 151.2 385.9 151.2 385.9 153.8 381.4 153.8 381.4 161.6 386.5 161.6 386.5 164.2 378.3 164.2 378.3 141.3"/>
  <path class="st0" d="M415.8,141.8v3c-.9-.7-1.8-1-2.5-1s-1.5.3-2,.9c-.5.5-.8,1.3-.8,2.2s.2,1.5.5,2.1c.2.3.5.7.9,1.2.4.5,1,1.1,1.7,1.8,1.2,1.3,2.1,2.4,2.5,3.3.5.9.7,2,.7,3.3s-.5,3.2-1.5,4.4c-1,1.1-2.3,1.7-3.8,1.7s-2.4-.4-3.4-1.1v-3c1.1.8,2.1,1.2,3,1.2s1.5-.3,2-.8c.5-.6.7-1.3.7-2.3s-.2-1.6-.5-2.2c-.2-.3-.5-.7-.8-1.1s-.8-.9-1.3-1.4c-.8-.8-1.4-1.4-1.9-2-.5-.6-.9-1.1-1.1-1.6-.5-.9-.7-2-.7-3.3s.5-3.2,1.4-4.2c.9-1.1,2.2-1.6,3.8-1.6s2.1.3,3.1.8"/>
  <polygon class="st0" points="437 141.3 447 141.3 447 144 443.5 144 443.5 164.2 440.5 164.2 440.5 144 437 144 437 141.3"/>
  <path class="st0" d="M470.5,141.3h2.4l4.9,22.8h-3l-.9-4.4h-4.5l-.9,4.4h-3l5-22.8h0ZM473.4,157.4l-.7-3.6c-.5-2.5-.8-5.1-1.1-7.9-.1,1.4-.3,2.8-.5,4.2-.2,1.4-.5,2.9-.8,4.5l-.6,2.9h3.7Z"/>
  <path class="st0" d="M498.5,141.3h3v16.1c0,1.6.1,2.8.5,3.3.3.6.9.8,1.8.8s1.5-.2,1.8-.7c.3-.5.5-1.5.5-2.9v-16.6h3v16.6c0,2.5-.4,4.2-1.1,5-.9,1-2.3,1.5-4.1,1.5s-3.5-.6-4.3-1.9c-.6-.9-.9-2.6-.9-5.1v-16.1h0Z"/>
  <path class="st0" d="M531.4,141.3h4c1.7,0,2.9.4,3.7,1.2,1,1,1.5,2.6,1.5,4.8s-.3,2.9-.8,3.9-1.3,1.6-2.3,1.8l4.2,11.1h-3.1l-4.2-11.2v11.2h-3.1v-22.8h0ZM534.5,151.5c1.2,0,2-.3,2.5-.8.5-.6.7-1.5.7-2.8s0-1.3-.2-1.8c0-.5-.3-.9-.5-1.2-.2-.3-.5-.6-.9-.7s-.8-.2-1.2-.2h-.5v7.6h0Z"/>
  <path class="st0" d="M566.3,141.3h2.4l4.9,22.8h-3l-.9-4.4h-4.5l-.9,4.4h-3l5-22.8h0ZM569.3,157.4l-.7-3.6c-.5-2.5-.8-5.1-1.1-7.9-.1,1.4-.3,2.8-.5,4.2-.2,1.4-.5,2.9-.8,4.5l-.6,2.9h3.7Z"/>
  <path class="st0" d="M594.3,141.3h2.9l3.1,9.1c.9,2.6,1.7,5.3,2.3,8.2-.2-1.8-.4-3.4-.5-4.8s-.2-2.8-.2-4v-8.5h3.1v22.8h-2.9l-3.5-10.3c-.3-.9-.6-1.9-.9-2.9-.3-1-.5-2.1-.8-3.2,0-.1,0-.3,0-.5,0-.2,0-.4-.2-.7,0,.2,0,.5,0,.6,0,.2,0,.3,0,.5l.2,2.3.2,2.8c0,.2,0,.4,0,.6s0,.5,0,.8l.2,9.9h-3v-22.8h0Z"/>
  <polygon class="st0" points="625.6 141.3 635.6 141.3 635.6 144 632.2 144 632.2 164.2 629.2 164.2 629.2 144 625.6 144 625.6 141.3"/>
  <path class="st0" d="M661.7,141.6v3c-.9-.7-1.8-1-2.5-1s-1.5.3-2,.9c-.5.5-.8,1.3-.8,2.2s.2,1.5.5,2.1c.2.3.5.7.9,1.2s1,1.1,1.7,1.8c1.2,1.3,2.1,2.4,2.5,3.3.5.9.7,2,.7,3.3s-.5,3.2-1.5,4.4c-1,1.1-2.3,1.7-3.8,1.7s-2.4-.4-3.3-1.1v-3c1.1.8,2.1,1.2,3,1.2s1.5-.3,2-.8c.5-.6.7-1.3.7-2.3s-.2-1.6-.5-2.2c-.2-.3-.5-.7-.8-1.1s-.8-.9-1.3-1.4c-.8-.8-1.4-1.4-1.9-2-.5-.6-.9-1.1-1.1-1.6-.5-.9-.7-2-.7-3.3s.5-3.2,1.4-4.2c.9-1.1,2.2-1.6,3.8-1.6s2.1.3,3.1.8"/>
  <path class="st1" d="M49.7,122.5s6-34.8-4.5-65.6c0,0-5.2,2.3-8.6,2.8,0,0,1.6-5.2,7.1-8.3,0,0-6.8-25.3-24.4-51.3,0,0,7,27.6-10.8,66.1,0,0,8.7,11.6,10.8,19.6,0,0-8.1-7.9-11.5-9.7,0,0-.4,1.2-.8,2.3,0,0,3.7,3.7,5.5,7.5,0,0-3.9-1.2-6.2-3.3,0,0-1.3,53.5,12.5,80.9h0c4.6-17.1,7.1-34.9,8.1-44.5,1.5-14.9,2.6-31.3,1.7-51.7,2.6,7.1,2.9,33.6,1.6,49.2-1.7,19.8-4,33.9-8.6,51.6,10.9-4.5,24.5-19.6,27.1-42.1,0,0-1.9.9-9.1,3.6,0,0,2.7-3.5,10.1-7.1h0Z"/>
  <path class="st1" d="M10.7,189.2c-.8,2.1-2.4,6.2-4.2,10.6-2.5,6.1-4,9.1-6.5,16.2,6.8-8.4,15.4-27.5,18.4-37.4.9-2.9,2-6.4,2.9-9.9l-2.7-4.6c-2.4,8.2-4.7,16.9-8,25.1h0Z"/>
  <path class="st0" d="M660.7,80c-.5-.3-1-.7-1.2-1.2-.3-.5-.5-1.1-.5-1.7s.2-1.2.5-1.7.7-.9,1.2-1.2,1.1-.5,1.8-.5,1.2.2,1.7.5.9.7,1.2,1.2.5,1.1.5,1.7-.2,1.2-.5,1.7c-.3.5-.7.9-1.2,1.2s-1.1.5-1.7.5-1.2-.2-1.8-.5ZM663.9,79.5c.4-.2.7-.6,1-1s.3-.9.3-1.5-.1-1.1-.3-1.5-.6-.8-1-1-.9-.3-1.4-.3-1,.1-1.5.3-.7.6-1,1-.3.9-.3,1.5.1,1.1.3,1.5.6.7,1,1,.9.3,1.5.3,1-.1,1.4-.3ZM663.7,78.7s0,0,0,0h-.5s0,0,0,0l-.5-1.5s0,0,0,0c0,0,0,0,0,0h-.7s0,0,0,0v1.4c0,0,0,0,0,0h-.5s0,0,0,0v-3.3s0,0,0,0h1.5c.4,0,.7,0,.9.2.2.1.3.4.3.7s0,.5-.2.6-.3.2-.5.3c0,0,0,0,0,0l.6,1.5h0c0,0,0,0,0,0ZM663,76.6c.1,0,.2-.2.2-.3s0-.2-.1-.3-.3-.1-.5-.1h-.8s0,0,0,0v.8s0,0,0,0h.8c.2,0,.3,0,.4,0h0Z"/>
</svg>