<?xml version="1.0" encoding="UTF-8"?><svg id="Layer_1" xmlns="http://www.w3.org/2000/svg" viewBox="0 0 665.89 216"><defs><style>.cls-1{fill:#fff;}</style></defs><path class="cls-1" d="m97.03,112.77c-6.07-5.09-7.67-11.79-7.67-17.51,0-4.04,1.32-11.02,7.18-16.25,4.47-3.91,10.32-6.28,19.46-6.28,3.84,0,6.14.28,8.93.63,2.3.35,4.33.77,6.14.98.7.07.91.35.91.7,0,.49-.14,1.19-.28,3.28-.14,1.96-.14,5.23-.21,6.41-.07.84-.28,1.47-.84,1.47-.49,0-.63-.48-.63-1.26-.07-1.88-.84-3.98-2.37-5.51-2.1-2.02-6.21-3.49-11.86-3.49s-8.79.98-11.58,3.35c-4.53,3.91-5.65,9.63-5.65,15.42,0,14.09,10.88,20.79,19.11,20.79,5.44,0,8.44-.42,10.88-3.14,1.05-1.19,1.88-2.86,2.09-3.97.14-.91.28-1.19.77-1.19.42,0,.7.56.7,1.04,0,.7-.7,5.86-1.32,7.88-.28,1.05-.56,1.32-1.6,1.75-2.45.97-7.12,1.33-11.09,1.33-8.37,0-15.49-1.75-21.07-6.42"/><path class="cls-1" d="m139.93,95.97c0-10.12,7.12-23.23,25.74-23.23,15.49,0,25.12,8.58,25.12,22.18s-9.91,24.28-25.74,24.28c-17.86,0-25.11-12.7-25.11-23.23m41.71,1.11c0-13.12-7.88-21.2-17.78-21.2-6.84,0-14.86,3.63-14.86,18.28,0,12.2,6.98,21.83,18.56,21.83,4.32,0,14.09-2.02,14.09-18.9"/><path class="cls-1" d="m198.37,95.97c0-10.12,7.12-23.23,25.74-23.23,15.48,0,25.11,8.58,25.11,22.18s-9.91,24.28-25.74,24.28c-17.86,0-25.11-12.7-25.11-23.23m41.71,1.11c0-13.12-7.88-21.2-17.79-21.2-6.83,0-14.86,3.63-14.86,18.28,0,12.2,6.98,21.83,18.56,21.83,4.33,0,14.09-2.02,14.09-18.9"/><path class="cls-1" d="m259.97,90.73c0-8.99,0-10.67-.07-12.55-.14-2.02-.69-2.65-2.65-3.21-.49-.14-1.53-.21-2.44-.21-.63,0-1.04-.21-1.04-.63s.49-.56,1.4-.56c3.21,0,7.11.14,8.85.14,2.51,0,7.4-.14,10.19-.14,7.67,0,10.46,2.51,11.44,3.35,1.33,1.26,3.07,3.91,3.07,7.11,0,8.37-6.7,14.37-15.42,14.37-.27,0-1.53,0-1.81-.07-.35,0-.76-.21-.76-.63,0-.49.7-.77,2.02-.77,3.42,0,8.23-3.56,8.23-9.63,0-1.95-.21-5.86-3.63-8.79-2.23-1.95-4.74-2.23-6.14-2.23-.91,0-2.09.07-2.65.28-.35.14-.49.49-.49,1.12v23.51c0,5.44,0,10.12.28,12.69.21,1.68.55,2.79,2.37,3.07.91.14,2.23.21,3.14.21.7,0,.98.35.98.63,0,.41-.49.63-1.12.63-4.12,0-8.44-.21-10.04-.21-1.4,0-5.3.21-7.74.21-.77,0-1.19-.21-1.19-.63,0-.28.21-.63.98-.63.91,0,1.61-.07,2.16-.21,1.26-.28,1.61-1.4,1.81-3.14.28-2.51.28-7.18.28-12.63v-10.47Z"/><path class="cls-1" d="m299.45,90.73c0-8.99,0-10.67-.07-12.55-.14-2.02-.7-2.65-2.65-3.21-.49-.14-1.54-.21-2.44-.21-.63,0-1.05-.21-1.05-.63s.49-.56,1.4-.56c3.21,0,7.12.14,8.86.14,1.95,0,15.56.07,16.74,0,1.12-.07,2.1-.28,2.59-.35.35-.07.7-.28.98-.28.35,0,.42.28.42.56,0,.42-.35,1.12-.49,3.84-.07.63-.21,3.21-.35,3.91-.07.28-.21.98-.7.98-.42,0-.49-.28-.49-.77,0-.42-.07-1.46-.42-2.16-.49-1.05-.98-1.88-4.04-2.17-1.05-.13-8.37-.28-9.63-.28-.28,0-.42.21-.42.56v14.65c0,.35.07.63.42.63,1.39,0,9.35,0,10.74-.14,1.47-.14,2.38-.28,2.93-.91.49-.42.7-.77.98-.77s.49.28.49.63-.15,1.33-.49,4.33c-.14,1.18-.28,3.56-.28,3.97,0,.49-.07,1.33-.63,1.33-.42,0-.56-.21-.56-.49-.07-.62-.07-1.39-.21-2.16-.35-1.18-1.12-2.09-3.42-2.3-1.11-.14-8.09-.28-9.62-.28-.28,0-.35.28-.35.62v4.75c0,2.02-.07,7.05,0,8.79.14,4.05,2.02,4.95,8.3,4.95,1.61,0,4.19-.07,5.79-.77,1.53-.7,2.23-1.95,2.65-4.4.14-.62.27-.91.69-.91.49,0,.56.77.56,1.4,0,1.32-.49,5.37-.84,6.56-.41,1.53-.98,1.53-3.28,1.53-4.61,0-8.31-.07-11.31-.21-3-.07-5.3-.14-7.11-.14-.7,0-2.02.07-3.49.07-1.47.07-3,.14-4.25.14-.77,0-1.19-.21-1.19-.63,0-.28.21-.63.97-.63.91,0,1.61-.07,2.16-.21,1.26-.28,1.6-1.4,1.82-3.14.28-2.51.28-7.18.28-12.63v-10.47Z"/><path class="cls-1" d="m338.93,90.73c0-8.99,0-10.67-.07-12.55-.14-2.02-.7-2.65-2.65-3.21-.49-.14-1.53-.21-2.44-.21-.63,0-1.05-.21-1.05-.63s.49-.56,1.4-.56c3.21,0,7.11.14,8.37.14,2.09,0,7.67-.14,9.56-.14,3.9,0,8.37.35,11.64,2.51,1.75,1.18,4.33,4.19,4.33,8.16,0,4.4-2.51,8.3-8.51,13.11,5.44,6.7,9.77,12.07,13.46,15.76,3.43,3.42,5.58,3.7,6.57,3.91.62.14.97.14,1.46.14s.76.35.76.63c0,.49-.41.63-1.18.63h-5.86c-3.42,0-5.1-.34-6.7-1.19-2.65-1.32-4.95-4.12-8.37-8.72-2.44-3.21-5.02-7.18-5.79-8.09-.35-.35-.7-.42-1.12-.42l-5.51-.14c-.28,0-.49.14-.49.49v.83c0,5.51.07,10.12.35,12.63.21,1.74.49,2.86,2.37,3.14.91.14,2.24.21,3,.21.49,0,.77.35.77.63,0,.41-.49.63-1.26.63-3.55,0-8.65-.21-9.56-.21-1.19,0-5.09.21-7.53.21-.76,0-1.19-.21-1.19-.63,0-.28.21-.63.98-.63.9,0,1.6-.07,2.16-.21,1.26-.28,1.61-1.4,1.81-3.14.28-2.51.28-7.18.28-12.63v-10.47Zm7.82,4.61c0,.63.14.84.55,1.05,1.33.42,3.14.56,4.67.56,2.44,0,3.28-.21,4.32-.97,1.89-1.33,3.98-3.91,3.98-8.79,0-8.37-5.72-10.53-9.35-10.53-1.53,0-3,.07-3.63.21-.42.14-.55.35-.55.84v17.65Z"/><path class="cls-1" d="m378.34,64.51c-.69-.7-.76-.9-.76-1.26,0-.21.42-.56.76-.56,1.4,0,4.47.91,5.79,1.32,1.74.49,2.02.98,2.02,2.02,0,4.26-4.53,11.72-7.67,14.93-.42.42-.7.56-1.12.56-.21,0-.42-.14-.42-.41,0-.14.07-.35.35-.91,1.26-2.44,2.73-6.55,2.73-10.88,0-2.3-1.05-4.18-1.68-4.81"/><path class="cls-1" d="m393.06,117.66c-.97-.42-1.18-.7-1.18-2.02,0-3.21.27-6.91.34-7.88,0-.91.28-1.54.77-1.54.56,0,.63.56.63.98,0,.77.2,2.02.56,3.07,1.32,4.4,5.93,5.86,9.76,5.86,5.3,0,8.51-3.35,8.51-7.53,0-2.58-.63-5.16-6.07-8.37l-3.56-2.09c-7.26-4.26-9.63-8.23-9.63-13.46,0-7.25,6.98-11.93,15.49-11.93,3.98,0,7.12.56,8.72.98.56.14.84.35.84.76,0,.77-.21,2.44-.21,7.12,0,1.26-.28,1.88-.77,1.88-.42,0-.63-.35-.63-1.04,0-.56-.27-2.37-1.6-3.91-.91-1.11-2.85-2.78-6.83-2.78-4.4,0-8.37,2.3-8.37,6.35,0,2.65.98,4.75,6.49,7.81l2.51,1.4c8.09,4.46,10.61,8.99,10.61,14.37,0,4.39-1.68,7.95-6.14,11.09-2.93,2.09-6.97,2.44-10.25,2.44-3.56,0-7.33-.35-9.98-1.54"/><path class="cls-1" d="m479.84,92.9c.13,0,.34-.07.34-.42v-1.25c0-9-.07-11.17-.14-13.05-.13-2.02-.69-2.65-2.65-3.21-.49-.14-1.53-.21-2.37-.21-.7,0-1.05-.21-1.05-.63s.42-.56,1.32-.56c3.28,0,7.61.14,9.21.14,1.46,0,5.51-.14,7.89-.14.9,0,1.32.14,1.32.56s-.42.63-1.12.63c-.49,0-1.05.07-1.82.21-1.6.27-2.09,1.12-2.23,3.21-.14,1.88-.14,3.56-.14,12.55v10.47c0,5.44,0,10.12.28,12.69.21,1.68.56,2.79,2.44,3.07.84.14,1.93.24,2.91.24.63,0,.98.35.98.63,0,.41-.49.63-1.26.63-3.98,0-7.79-.24-9.47-.24-1.39,0-5.72.21-8.09.21-.84,0-1.33-.21-1.33-.63,0-.28.28-.63.98-.63.98,0,1.67-.07,2.23-.21,1.26-.28,1.61-1.4,1.82-3.14.27-2.51.27-7.04.27-12.48v-4.54c0-.21-.21-.35-.34-.35h-23.17c-.21,0-.42.07-.42.35v4.54c0,5.44.07,9.98.35,12.55.21,1.68.56,2.79,2.37,3.07.84.14,2.24.21,3.14.21.69,0,.97.35.97.63,0,.41-.49.63-1.25.63-3.98,0-8.23-.21-9.98-.21-1.4,0-5.44.21-7.89.21-.76,0-1.19-.21-1.19-.63,0-.28.21-.63.98-.63.91,0,1.6-.07,2.16-.21,1.26-.28,1.6-1.4,1.81-3.14.28-2.51.28-7.18.28-12.63v-10.47c0-8.99,0-10.67-.07-12.55-.14-2.02-.69-2.65-2.65-3.21-.49-.14-1.54-.21-2.44-.21-.63,0-1.05-.21-1.05-.63s.49-.56,1.33-.56c3.27,0,7.32.14,9,.14,1.46,0,5.72-.14,8.16-.14.84,0,1.26.14,1.26.56s-.34.63-1.12.63c-.49,0-1.05.07-1.74.21-1.68.27-2.17,1.12-2.3,3.21-.14,1.88-.14,4.04-.14,13.05v1.25c0,.35.21.42.42.42h23.17Z"/><path class="cls-1" d="m511.86,103.5c-.35,0-.42.07-.56.42l-3.28,7.95c-.63,1.46-.91,2.93-.91,3.63,0,1.05.56,1.68,2.44,1.68h.91c.77,0,.91.28.91.63,0,.49-.35.63-.98.63-2.02,0-4.88-.21-6.83-.21-.63,0-3.91.21-7.12.21-.77,0-.87-.14-.87-.63,0-.35.21-.63.7-.63.56,0,1.01-.07,1.57-.07,2.79-.42,3.84-2.23,5.09-5.23l16.05-37.32c.7-1.67,1.18-2.37,1.81-2.37.9,0,1.18.56,1.81,1.88,1.46,3.28,11.72,27.55,15.63,36.55,2.37,5.37,4.12,6.14,5.23,6.35.91.14,1.61.21,2.3.21.56,0,.84.21.84.63,0,.49-.35.63-2.65.63-2.16,0-6.62,0-11.79-.14-1.12-.07-1.82-.07-1.82-.49,0-.35.14-.56.77-.63.41-.07.84-.63.56-1.33l-4.74-11.93c-.14-.35-.35-.42-.63-.42h-14.44Zm13.11-3.28c.28,0,.35-.14.28-.35l-5.79-15.06c-.07-.21-.14-.56-.28-.56-.21,0-.28.35-.35.56l-5.93,15c-.14.28,0,.42.21.42h11.86Z"/><path class="cls-1" d="m544.85,79.36c-.77-2.16-1.25-3.56-2.16-4.12-.63-.41-1.81-.48-2.37-.48-.63,0-.98-.21-.98-.63s.49-.56,1.39-.56c3.14,0,6.56.14,7.11.14s3.56-.14,7.12-.14c.91,0,1.33.14,1.33.56s-.49.63-1.12.63c-.48,0-1.04.07-1.53.28-.56.21-.63.56-.63,1.19,0,.77.56,2.72,1.32,5.44,1.05,3.91,6.62,21.84,7.54,24.55h.21l11.72-30.27c.62-1.67,1.26-2.16,1.81-2.16.7,0,1.26.91,2.02,2.79l12.28,29.23h.21c1.19-3.42,5.86-19.04,8.03-25.95.42-1.39.62-2.58.62-3.42,0-.97-.56-1.67-3-1.67-.56,0-1.05-.28-1.05-.63,0-.42.49-.56,1.47-.56,3.21,0,5.99.14,6.55.14.42,0,3.07-.14,5.09-.14.7,0,1.12.14,1.12.49,0,.41-.28.7-.84.7-.63,0-1.46.07-2.16.28-1.47.56-2.17,2.79-3.42,6.21-2.87,7.46-9.14,26.3-12.14,35.16-.7,2.1-1.05,2.8-1.96,2.8-.84,0-1.25-.7-2.16-2.87l-12.49-29.23h-.14c-1.04,2.51-9.28,23.51-11.79,28.95-1.12,2.44-1.47,3.14-2.37,3.14-.77,0-1.12-.63-1.68-2.16l-12.97-37.67Z"/><path class="cls-1" d="m626.54,93.38h.27c2.1-2.23,11.03-11.02,12.83-13.04,1.75-1.95,3.08-3.35,3.08-4.4,0-.63-.28-1.05-.84-1.19-.56-.14-.84-.28-.84-.63,0-.42.35-.56.97-.56,1.33,0,4.68.14,6.35.14,1.88,0,5.3-.14,7.18-.14.63,0,1.05.14,1.05.56s-.35.63-.91.63c-.9,0-2.44.28-3.55.7-1.96.7-3.91,1.96-6.49,4.4-1.95,1.81-11.09,10.47-12.97,12.63,2.16,2.79,14.23,15.35,16.6,17.58,2.72,2.44,5.09,5.02,8.37,6.34,1.82.77,3.07.77,3.77.77.49,0,.84.28.84.63,0,.41-.35.63-1.46.63h-5.37c-1.81,0-2.93,0-4.26-.14-3.28-.28-5.3-1.53-7.96-3.83-2.65-2.31-14.44-15.98-15.76-17.8l-.63-.83h-.27v5.37c0,5.44,0,10.12.13,12.69.14,1.68.7,2.79,2.23,3.07.84.14,2.23.21,3,.21.49,0,.84.35.84.63,0,.41-.49.63-1.19.63-3.42,0-7.81-.21-9.35-.21-1.4,0-5.3.21-7.74.21-.77,0-1.18-.21-1.18-.63,0-.28.21-.63.97-.63.91,0,1.61-.07,2.17-.21,1.25-.28,1.6-1.4,1.81-3.14.28-2.51.28-7.18.28-12.63v-10.47c0-8.99,0-10.67-.07-12.55-.14-2.02-.7-2.65-2.65-3.21-.49-.14-1.54-.21-2.45-.21-.63,0-1.05-.21-1.05-.63s.49-.56,1.4-.56c3.21,0,7.11.14,8.59.14s5.86-.14,7.88-.14c.91,0,1.33.14,1.33.56s-.36.63-.84.63c-.63,0-.97.07-1.74.21-1.68.27-2.16,1.12-2.31,3.21-.06,1.88-.06,3.56-.06,12.55v2.66Z"/><path class="cls-1" d="m91.56,141.34h2.97l1.55,10.61.25,1.57c.12.84.21,1.62.27,2.32l.16,1.94s.02.14.03.26c0,.13.02.29.04.49l.07-.73c.12-1.29.24-2.48.38-3.57.13-1.08.28-2.08.44-3l1.64-9.88h2.37l1.53,9.6c.23,1.42.42,2.73.57,3.95.15,1.21.28,2.37.38,3.48.1-1.17.21-2.29.33-3.37.12-1.09.26-2.15.39-3.2l.22-1.52,1.31-8.93h2.94l-4.04,22.83h-2.39l-1.61-9.85s-.03-.21-.07-.49c-.04-.29-.1-.7-.18-1.23l-.31-2.28c-.02-.18-.05-.44-.09-.8-.04-.36-.09-.81-.14-1.35l-.07-.95c-.02.23-.04.43-.06.59-.02.17-.04.3-.05.42-.05.65-.09,1.15-.12,1.51-.04.36-.06.58-.07.66l-.31,2.19c-.07.5-.12.9-.16,1.18-.04.29-.07.46-.09.54l-1.67,9.85h-2.47l-3.95-22.83Z"/><rect class="cls-1" x="130.33" y="141.34" width="2.71" height="22.83"/><path class="cls-1" d="m155.66,141.34h2.87l3.06,9.11c.88,2.57,1.67,5.32,2.35,8.23-.25-1.76-.43-3.36-.55-4.79-.12-1.43-.18-2.77-.18-4.03v-8.52h3.09v22.83h-2.88l-3.45-10.27c-.31-.95-.61-1.94-.89-2.94-.29-1-.54-2.06-.78-3.16-.02-.14-.05-.31-.1-.5-.05-.2-.1-.42-.16-.68.03.25.06.47.07.65.02.19.03.34.04.47l.19,2.32.16,2.82c0,.16.02.35.02.58,0,.23,0,.48,0,.77l.16,9.94h-3.04v-22.83Z"/><polygon class="cls-1" points="188.75 141.34 196.93 141.34 196.93 143.96 191.83 143.96 191.83 151.17 196.36 151.17 196.36 153.77 191.83 153.77 191.83 161.56 196.93 161.56 196.93 164.17 188.75 164.17 188.75 141.34"/><path class="cls-1" d="m218.67,141.34h4.04c1.67,0,2.92.41,3.74,1.2,1.03,1.03,1.55,2.62,1.55,4.75,0,1.63-.28,2.95-.82,3.94-.55.99-1.32,1.61-2.34,1.84l4.19,11.1h-3.12l-4.17-11.17v11.17h-3.08v-22.83Zm3.08,10.14c1.18,0,2.02-.28,2.51-.83.49-.55.74-1.48.74-2.79,0-.71-.06-1.32-.16-1.82-.1-.5-.26-.91-.48-1.22-.22-.32-.5-.55-.85-.7-.34-.15-.76-.22-1.24-.22h-.51v7.58Z"/><path class="cls-1" d="m248.31,141.34h3.26l1.5,4.97c.05.15.1.31.15.49.05.17.11.37.18.57.56,1.79.95,3.3,1.15,4.52.17-1.22.33-2.07.44-2.56l.48-2.03.18-.79,1.27-5.17h3.2l-3.97,13.01v9.81h-3.09v-9.81l-4.76-13.01Z"/><path class="cls-1" d="m306.28,155.41l1.95,1.55-2.44,3.4,2.44,3.81h-3.37l-1.08-1.77c-1.12,1.27-2.43,1.91-3.92,1.91-1.39,0-2.6-.54-3.62-1.62-1.01-1.09-1.51-2.4-1.51-3.92,0-1.03.24-1.99.7-2.9.47-.92,1.29-1.97,2.46-3.18-1.22-1.93-1.83-3.74-1.83-5.42,0-1.25.41-2.29,1.24-3.11.84-.8,1.91-1.21,3.2-1.21s2.35.38,3.13,1.13c.79.75,1.19,1.74,1.19,2.96,0,1.04-.24,1.97-.73,2.81-.23.42-.56.89-1.01,1.44-.44.55-1.01,1.17-1.68,1.85l3.02,4.93,1.86-2.65Zm-6.96-.35c-1.14,1.26-1.72,2.44-1.72,3.55,0,.89.25,1.63.75,2.23.51.61,1.11.92,1.82.92.79,0,1.56-.48,2.32-1.45l-3.17-5.25Zm.81-4.22c.42-.44.78-.83,1.06-1.17.29-.34.51-.65.65-.9.31-.51.46-1.07.46-1.67,0-.56-.15-1.01-.45-1.33-.3-.33-.69-.49-1.17-.49s-.94.19-1.31.59c-.35.38-.54.84-.54,1.37,0,.76.43,1.96,1.28,3.6"/><path class="cls-1" d="m346.62,141.34h4.05c1.68,0,2.92.41,3.73,1.2,1.04,1.03,1.56,2.62,1.56,4.75,0,1.63-.28,2.95-.82,3.94-.54.99-1.32,1.61-2.34,1.84l4.19,11.1h-3.11l-4.17-11.17v11.17h-3.09v-22.83Zm3.09,10.14c1.18,0,2.02-.28,2.51-.83.49-.55.73-1.48.73-2.79,0-.71-.05-1.32-.16-1.82-.1-.5-.26-.91-.48-1.22-.22-.32-.5-.55-.85-.7-.35-.15-.75-.22-1.24-.22h-.51v7.58Z"/><polygon class="cls-1" points="378.3 141.34 386.48 141.34 386.48 143.96 381.39 143.96 381.39 151.17 385.91 151.17 385.91 153.77 381.39 153.77 381.39 161.56 386.48 161.56 386.48 164.17 378.3 164.17 378.3 141.34"/><path class="cls-1" d="m415.84,141.81v2.99c-.94-.67-1.78-1.01-2.53-1.01-.81,0-1.47.29-1.98.86-.51.54-.77,1.27-.77,2.17,0,.81.18,1.49.54,2.06.19.3.49.7.92,1.18.43.48.98,1.07,1.66,1.75,1.25,1.27,2.11,2.37,2.55,3.3.45.9.68,2,.68,3.3,0,1.77-.5,3.22-1.49,4.37-.99,1.12-2.27,1.67-3.83,1.67-1.31,0-2.43-.36-3.35-1.08v-3.04c1.09.8,2.09,1.2,2.98,1.2.84,0,1.49-.28,1.97-.84.48-.55.71-1.31.71-2.27,0-.83-.19-1.57-.55-2.24-.19-.31-.45-.68-.78-1.09-.33-.41-.75-.87-1.26-1.37-.78-.77-1.42-1.45-1.93-2.04-.51-.6-.89-1.11-1.13-1.56-.47-.86-.71-1.96-.71-3.28,0-1.78.46-3.2,1.39-4.25.94-1.06,2.19-1.58,3.76-1.58,1.1,0,2.14.26,3.14.78"/><polygon class="cls-1" points="436.99 141.34 446.99 141.34 446.99 144.04 443.54 144.04 443.54 164.17 440.54 164.17 440.54 144.04 436.99 144.04 436.99 141.34"/><path class="cls-1" d="m470.45,141.34h2.39l4.89,22.83h-3.04l-.85-4.44h-4.53l-.87,4.44h-2.96l4.96-22.83Zm2.94,16.02l-.68-3.63c-.45-2.47-.82-5.11-1.1-7.93-.14,1.37-.32,2.76-.54,4.16-.21,1.41-.47,2.9-.76,4.47l-.57,2.92h3.65Z"/><path class="cls-1" d="m498.46,141.34h3v16.15c0,1.65.15,2.75.45,3.28.31.55.91.82,1.8.82s1.49-.24,1.78-.71c.29-.48.45-1.46.45-2.95v-16.59h3.01v16.59c0,2.48-.38,4.16-1.14,5.04-.9,1-2.29,1.5-4.15,1.5-2.05,0-3.49-.64-4.33-1.92-.58-.88-.87-2.57-.87-5.06v-16.14Z"/><path class="cls-1" d="m531.4,141.34h4.05c1.67,0,2.92.41,3.73,1.2,1.04,1.03,1.55,2.62,1.55,4.75,0,1.63-.27,2.95-.82,3.94-.55.99-1.33,1.61-2.34,1.84l4.19,11.1h-3.11l-4.17-11.17v11.17h-3.08v-22.83Zm3.08,10.14c1.18,0,2.03-.28,2.51-.83.49-.55.74-1.48.74-2.79,0-.71-.05-1.32-.16-1.82-.1-.5-.26-.91-.48-1.22-.23-.32-.51-.55-.86-.7-.35-.15-.76-.22-1.24-.22h-.52v7.58Z"/><path class="cls-1" d="m566.34,141.34h2.39l4.89,22.83h-3.04l-.86-4.44h-4.53l-.87,4.44h-2.96l4.97-22.83Zm2.94,16.02l-.68-3.63c-.46-2.47-.82-5.11-1.11-7.93-.14,1.37-.31,2.76-.53,4.16-.22,1.41-.47,2.9-.76,4.47l-.57,2.92h3.65Z"/><path class="cls-1" d="m594.35,141.34h2.88l3.06,9.11c.88,2.57,1.67,5.32,2.35,8.23-.25-1.76-.43-3.36-.55-4.79-.12-1.43-.17-2.77-.17-4.03v-8.52h3.08v22.83h-2.88l-3.45-10.27c-.31-.95-.61-1.94-.9-2.94-.28-1-.54-2.06-.78-3.16-.02-.14-.05-.31-.09-.5-.04-.2-.1-.42-.15-.68.03.25.05.47.07.65.02.19.03.34.04.47l.19,2.32.16,2.82c0,.16.02.35.02.58,0,.23.01.48.01.77l.16,9.94h-3.04v-22.83Z"/><polygon class="cls-1" points="625.62 141.34 635.61 141.34 635.61 144.04 632.17 144.04 632.17 164.17 629.16 164.17 629.16 144.04 625.62 144.04 625.62 141.34"/><path class="cls-1" d="m661.69,141.61v2.99c-.94-.67-1.78-1.01-2.53-1.01-.81,0-1.47.29-1.98.86-.51.54-.77,1.27-.77,2.17,0,.81.18,1.49.54,2.06.19.3.49.7.92,1.18.43.48.98,1.07,1.66,1.75,1.25,1.27,2.11,2.37,2.55,3.3.45.9.68,2,.68,3.3,0,1.77-.5,3.22-1.49,4.37-.99,1.12-2.27,1.67-3.83,1.67-1.31,0-2.43-.36-3.35-1.08v-3.04c1.09.8,2.09,1.2,2.98,1.2.84,0,1.49-.28,1.97-.84.48-.55.72-1.31.72-2.27,0-.83-.19-1.57-.55-2.24-.19-.31-.45-.68-.78-1.09-.33-.41-.75-.87-1.26-1.37-.78-.77-1.42-1.45-1.93-2.04-.51-.6-.89-1.11-1.13-1.56-.47-.86-.71-1.96-.71-3.28,0-1.78.46-3.2,1.39-4.25.93-1.06,2.19-1.58,3.76-1.58,1.1,0,2.14.26,3.14.78"/><path class="cls-1" d="m49.66,122.49s5.95-34.85-4.51-65.64c0,0-5.17,2.3-8.6,2.83,0,0,1.6-5.16,7.08-8.35,0,0-6.8-25.29-24.42-51.35,0,0,7.04,27.62-10.75,66.08,0,0,8.66,11.59,10.82,19.62,0,0-8.14-7.86-11.49-9.67,0,0-.4,1.17-.75,2.31,0,0,3.71,3.73,5.54,7.48,0,0-3.89-1.18-6.21-3.32,0,0-1.3,53.52,12.52,80.95h0c4.58-17.13,7.14-34.86,8.12-44.48,1.51-14.93,2.62-31.33,1.71-51.71,2.63,7.08,2.91,33.62,1.58,49.15-1.71,19.79-3.96,33.88-8.61,51.59,10.9-4.48,24.54-19.65,27.06-42.05,0,0-1.89.92-9.14,3.62,0,0,2.73-3.54,10.06-7.08Z"/><path class="cls-1" d="m10.66,189.23c-.83,2.08-2.39,6.2-4.18,10.58-2.51,6.14-3.97,9.12-6.48,16.19,6.8-8.35,15.37-27.47,18.44-37.37.91-2.89,1.97-6.43,2.89-9.87l-2.68-4.62c-2.36,8.24-4.72,16.92-7.99,25.09Z"/><path class="cls-1" d="m660.69,79.98c-.53-.31-.95-.73-1.25-1.25-.31-.52-.46-1.1-.46-1.74s.16-1.22.46-1.74.73-.94,1.25-1.25,1.11-.47,1.75-.47,1.22.16,1.74.47c.52.31.94.73,1.25,1.25s.46,1.1.46,1.74-.16,1.22-.46,1.74c-.31.52-.73.94-1.25,1.25-.52.31-1.1.46-1.74.46s-1.22-.15-1.75-.46Zm3.18-.53c.42-.23.74-.55.97-.97.23-.42.35-.92.35-1.49s-.12-1.07-.35-1.49c-.23-.42-.56-.75-.97-.98s-.89-.35-1.44-.35-1.04.12-1.45.35-.74.56-.97.98-.35.92-.35,1.49.12,1.07.35,1.49.56.74.97.97.9.34,1.45.34,1.02-.11,1.44-.34Zm-.15-.75s-.03.03-.05.03h-.51s-.05-.02-.07-.06l-.55-1.48s-.01-.03-.01-.04c0,0-.03-.01-.09-.01h-.67s-.06.02-.06.06v1.45c0,.06-.02.09-.07.09h-.45s-.07-.02-.07-.07v-3.29s.01-.07.04-.07h1.5c.37,0,.65.07.86.22.2.14.31.36.31.65,0,.27-.07.47-.21.61-.14.14-.3.23-.47.29-.02,0-.02.01-.01.04l.61,1.52s0,.05,0,.07Zm-.71-2.15c.12-.07.18-.18.18-.33,0-.12-.05-.23-.14-.32-.09-.09-.27-.13-.53-.13h-.74s-.05,0-.06,0c0,0-.01.02-.01.07v.77s.02.06.06.06h.8c.17,0,.32-.03.44-.1Z"/></svg>