<?xml version="1.0" encoding="utf-8"?>
<!-- Generator: Adobe Illustrator 30.1.0, SVG Export Plug-In . SVG Version: 9.03 Build 0)  -->
<svg version="1.0" id="Ebene_1" shape-rendering="auto"
	 xmlns="http://www.w3.org/2000/svg" xmlns:xlink="http://www.w3.org/1999/xlink" x="0px" y="0px" viewBox="0 0 100 100"
	 style="enable-background:new 0 0 100 100;" xml:space="preserve">
<rect x="38.8" y="10" width="3.2" height="3.2"/>
<rect x="54.8" y="10" width="3.2" height="3.2"/>
<rect x="61.2" y="10" width="3.2" height="3.2"/>
<rect x="35.6" y="13.2" width="3.2" height="3.2"/>
<rect x="38.8" y="13.2" width="3.2" height="3.2"/>
<rect x="45.2" y="13.2" width="3.2" height="3.2"/>
<rect x="48.4" y="13.2" width="3.2" height="3.2"/>
<rect x="51.6" y="13.2" width="3.2" height="3.2"/>
<rect x="54.8" y="13.2" width="3.2" height="3.2"/>
<rect x="38.8" y="16.4" width="3.2" height="3.2"/>
<rect x="42" y="16.4" width="3.2" height="3.2"/>
<rect x="45.2" y="16.4" width="3.2" height="3.2"/>
<rect x="35.6" y="19.6" width="3.2" height="3.2"/>
<rect x="38.8" y="19.6" width="3.2" height="3.2"/>
<rect x="45.2" y="19.6" width="3.2" height="3.2"/>
<rect x="51.6" y="19.6" width="3.2" height="3.2"/>
<rect x="58" y="19.6" width="3.2" height="3.2"/>
<rect x="61.2" y="19.6" width="3.2" height="3.2"/>
<rect x="42" y="22.8" width="3.2" height="3.2"/>
<rect x="48.4" y="22.8" width="3.2" height="3.2"/>
<rect x="58" y="22.8" width="3.2" height="3.2"/>
<rect x="61.2" y="22.8" width="3.2" height="3.2"/>
<rect x="35.6" y="26" width="3.2" height="3.2"/>
<rect x="42" y="26" width="3.2" height="3.2"/>
<rect x="51.6" y="26" width="3.2" height="3.2"/>
<rect x="54.8" y="26" width="3.2" height="3.2"/>
<rect x="58" y="26" width="3.2" height="3.2"/>
<rect x="35.6" y="29.2" width="3.2" height="3.2"/>
<rect x="42" y="29.2" width="3.2" height="3.2"/>
<rect x="48.4" y="29.2" width="3.2" height="3.2"/>
<rect x="54.8" y="29.2" width="3.2" height="3.2"/>
<rect x="61.2" y="29.2" width="3.2" height="3.2"/>
<rect x="48.4" y="32.4" width="3.2" height="3.2"/>
<rect x="61.2" y="32.4" width="3.2" height="3.2"/>
<rect x="10" y="35.6" width="3.2" height="3.2"/>
<rect x="13.2" y="35.6" width="3.2" height="3.2"/>
<rect x="16.4" y="35.6" width="3.2" height="3.2"/>
<rect x="19.6" y="35.6" width="3.2" height="3.2"/>
<rect x="22.8" y="35.6" width="3.2" height="3.2"/>
<rect x="29.2" y="35.6" width="3.2" height="3.2"/>
<rect x="32.4" y="35.6" width="3.2" height="3.2"/>
<rect x="35.6" y="35.6" width="3.2" height="3.2"/>
<rect x="38.8" y="35.6" width="3.2" height="3.2"/>
<rect x="42" y="35.6" width="3.2" height="3.2"/>
<rect x="48.4" y="35.6" width="3.2" height="3.2"/>
<rect x="51.6" y="35.6" width="3.2" height="3.2"/>
<rect x="54.8" y="35.6" width="3.2" height="3.2"/>
<rect x="58" y="35.6" width="3.2" height="3.2"/>
<rect x="64.4" y="35.6" width="3.2" height="3.2"/>
<rect x="70.8" y="35.6" width="3.2" height="3.2"/>
<rect x="77.2" y="35.6" width="3.2" height="3.2"/>
<rect x="83.6" y="35.6" width="3.2" height="3.2"/>
<rect x="16.4" y="38.8" width="3.2" height="3.2"/>
<rect x="19.6" y="38.8" width="3.2" height="3.2"/>
<rect x="26" y="38.8" width="3.2" height="3.2"/>
<rect x="35.6" y="38.8" width="3.2" height="3.2"/>
<rect x="38.8" y="38.8" width="3.2" height="3.2"/>
<rect x="54.8" y="38.8" width="3.2" height="3.2"/>
<rect x="58" y="38.8" width="3.2" height="3.2"/>
<rect x="61.2" y="38.8" width="3.2" height="3.2"/>
<rect x="64.4" y="38.8" width="3.2" height="3.2"/>
<rect x="70.8" y="38.8" width="3.2" height="3.2"/>
<rect x="74" y="38.8" width="3.2" height="3.2"/>
<rect x="86.8" y="38.8" width="3.2" height="3.2"/>
<rect x="13.2" y="42" width="3.2" height="3.2"/>
<rect x="16.4" y="42" width="3.2" height="3.2"/>
<rect x="22.8" y="42" width="3.2" height="3.2"/>
<rect x="26" y="42" width="3.2" height="3.2"/>
<rect x="29.2" y="42" width="3.2" height="3.2"/>
<rect x="38.8" y="42" width="3.2" height="3.2"/>
<rect x="45.2" y="42" width="3.2" height="3.2"/>
<rect x="48.4" y="42" width="3.2" height="3.2"/>
<rect x="54.8" y="42" width="3.2" height="3.2"/>
<rect x="58" y="42" width="3.2" height="3.2"/>
<rect x="64.4" y="42" width="3.2" height="3.2"/>
<rect x="67.6" y="42" width="3.2" height="3.2"/>
<rect x="74" y="42" width="3.2" height="3.2"/>
<rect x="80.4" y="42" width="3.2" height="3.2"/>
<rect x="10" y="45.2" width="3.2" height="3.2"/>
<rect x="16.4" y="45.2" width="3.2" height="3.2"/>
<rect x="35.6" y="45.2" width="3.2" height="3.2"/>
<rect x="38.8" y="45.2" width="3.2" height="3.2"/>
<rect x="42" y="45.2" width="3.2" height="3.2"/>
<rect x="45.2" y="45.2" width="3.2" height="3.2"/>
<rect x="51.6" y="45.2" width="3.2" height="3.2"/>
<rect x="54.8" y="45.2" width="3.2" height="3.2"/>
<rect x="61.2" y="45.2" width="3.2" height="3.2"/>
<rect x="64.4" y="45.2" width="3.2" height="3.2"/>
<rect x="10" y="48.4" width="3.2" height="3.2"/>
<rect x="13.2" y="48.4" width="3.2" height="3.2"/>
<rect x="16.4" y="48.4" width="3.2" height="3.2"/>
<rect x="26" y="48.4" width="3.2" height="3.2"/>
<rect x="29.2" y="48.4" width="3.2" height="3.2"/>
<rect x="38.8" y="48.4" width="3.2" height="3.2"/>
<rect x="45.2" y="48.4" width="3.2" height="3.2"/>
<rect x="51.6" y="48.4" width="3.2" height="3.2"/>
<rect x="58" y="48.4" width="3.2" height="3.2"/>
<rect x="67.6" y="48.4" width="3.2" height="3.2"/>
<rect x="70.8" y="48.4" width="3.2" height="3.2"/>
<rect x="74" y="48.4" width="3.2" height="3.2"/>
<rect x="77.2" y="48.4" width="3.2" height="3.2"/>
<rect x="83.6" y="48.4" width="3.2" height="3.2"/>
<rect x="86.8" y="48.4" width="3.2" height="3.2"/>
<rect x="10" y="51.6" width="3.2" height="3.2"/>
<rect x="16.4" y="51.6" width="3.2" height="3.2"/>
<rect x="26" y="51.6" width="3.2" height="3.2"/>
<rect x="32.4" y="51.6" width="3.2" height="3.2"/>
<rect x="38.8" y="51.6" width="3.2" height="3.2"/>
<rect x="42" y="51.6" width="3.2" height="3.2"/>
<rect x="48.4" y="51.6" width="3.2" height="3.2"/>
<rect x="61.2" y="51.6" width="3.2" height="3.2"/>
<rect x="64.4" y="51.6" width="3.2" height="3.2"/>
<rect x="67.6" y="51.6" width="3.2" height="3.2"/>
<rect x="70.8" y="51.6" width="3.2" height="3.2"/>
<rect x="74" y="51.6" width="3.2" height="3.2"/>
<rect x="10" y="54.8" width="3.2" height="3.2"/>
<rect x="19.6" y="54.8" width="3.2" height="3.2"/>
<rect x="29.2" y="54.8" width="3.2" height="3.2"/>
<rect x="32.4" y="54.8" width="3.2" height="3.2"/>
<rect x="54.8" y="54.8" width="3.2" height="3.2"/>
<rect x="64.4" y="54.8" width="3.2" height="3.2"/>
<rect x="67.6" y="54.8" width="3.2" height="3.2"/>
<rect x="74" y="54.8" width="3.2" height="3.2"/>
<rect x="80.4" y="54.8" width="3.2" height="3.2"/>
<rect x="83.6" y="54.8" width="3.2" height="3.2"/>
<rect x="86.8" y="54.8" width="3.2" height="3.2"/>
<rect x="10" y="58" width="3.2" height="3.2"/>
<rect x="16.4" y="58" width="3.2" height="3.2"/>
<rect x="22.8" y="58" width="3.2" height="3.2"/>
<rect x="35.6" y="58" width="3.2" height="3.2"/>
<rect x="48.4" y="58" width="3.2" height="3.2"/>
<rect x="64.4" y="58" width="3.2" height="3.2"/>
<rect x="83.6" y="58" width="3.2" height="3.2"/>
<rect x="86.8" y="58" width="3.2" height="3.2"/>
<rect x="10" y="61.2" width="3.2" height="3.2"/>
<rect x="22.8" y="61.2" width="3.2" height="3.2"/>
<rect x="29.2" y="61.2" width="3.2" height="3.2"/>
<rect x="35.6" y="61.2" width="3.2" height="3.2"/>
<rect x="48.4" y="61.2" width="3.2" height="3.2"/>
<rect x="54.8" y="61.2" width="3.2" height="3.2"/>
<rect x="58" y="61.2" width="3.2" height="3.2"/>
<rect x="61.2" y="61.2" width="3.2" height="3.2"/>
<rect x="64.4" y="61.2" width="3.2" height="3.2"/>
<rect x="67.6" y="61.2" width="3.2" height="3.2"/>
<rect x="70.8" y="61.2" width="3.2" height="3.2"/>
<rect x="74" y="61.2" width="3.2" height="3.2"/>
<rect x="77.2" y="61.2" width="3.2" height="3.2"/>
<rect x="86.8" y="61.2" width="3.2" height="3.2"/>
<rect x="35.6" y="64.4" width="3.2" height="3.2"/>
<rect x="38.8" y="64.4" width="3.2" height="3.2"/>
<rect x="61.2" y="64.4" width="3.2" height="3.2"/>
<rect x="74" y="64.4" width="3.2" height="3.2"/>
<rect x="86.8" y="64.4" width="3.2" height="3.2"/>
<rect x="35.6" y="67.6" width="3.2" height="3.2"/>
<rect x="42" y="67.6" width="3.2" height="3.2"/>
<rect x="45.2" y="67.6" width="3.2" height="3.2"/>
<rect x="48.4" y="67.6" width="3.2" height="3.2"/>
<rect x="51.6" y="67.6" width="3.2" height="3.2"/>
<rect x="54.8" y="67.6" width="3.2" height="3.2"/>
<rect x="61.2" y="67.6" width="3.2" height="3.2"/>
<rect x="67.6" y="67.6" width="3.2" height="3.2"/>
<rect x="74" y="67.6" width="3.2" height="3.2"/>
<rect x="80.4" y="67.6" width="3.2" height="3.2"/>
<rect x="83.6" y="67.6" width="3.2" height="3.2"/>
<rect x="86.8" y="67.6" width="3.2" height="3.2"/>
<rect x="38.8" y="70.8" width="3.2" height="3.2"/>
<rect x="45.2" y="70.8" width="3.2" height="3.2"/>
<rect x="54.8" y="70.8" width="3.2" height="3.2"/>
<rect x="61.2" y="70.8" width="3.2" height="3.2"/>
<rect x="74" y="70.8" width="3.2" height="3.2"/>
<rect x="77.2" y="70.8" width="3.2" height="3.2"/>
<rect x="35.6" y="74" width="3.2" height="3.2"/>
<rect x="38.8" y="74" width="3.2" height="3.2"/>
<rect x="42" y="74" width="3.2" height="3.2"/>
<rect x="45.2" y="74" width="3.2" height="3.2"/>
<rect x="48.4" y="74" width="3.2" height="3.2"/>
<rect x="54.8" y="74" width="3.2" height="3.2"/>
<rect x="61.2" y="74" width="3.2" height="3.2"/>
<rect x="64.4" y="74" width="3.2" height="3.2"/>
<rect x="67.6" y="74" width="3.2" height="3.2"/>
<rect x="70.8" y="74" width="3.2" height="3.2"/>
<rect x="74" y="74" width="3.2" height="3.2"/>
<rect x="77.2" y="74" width="3.2" height="3.2"/>
<rect x="35.6" y="77.2" width="3.2" height="3.2"/>
<rect x="48.4" y="77.2" width="3.2" height="3.2"/>
<rect x="58" y="77.2" width="3.2" height="3.2"/>
<rect x="61.2" y="77.2" width="3.2" height="3.2"/>
<rect x="67.6" y="77.2" width="3.2" height="3.2"/>
<rect x="74" y="77.2" width="3.2" height="3.2"/>
<rect x="83.6" y="77.2" width="3.2" height="3.2"/>
<rect x="86.8" y="77.2" width="3.2" height="3.2"/>
<rect x="35.6" y="80.4" width="3.2" height="3.2"/>
<rect x="38.8" y="80.4" width="3.2" height="3.2"/>
<rect x="42" y="80.4" width="3.2" height="3.2"/>
<rect x="48.4" y="80.4" width="3.2" height="3.2"/>
<rect x="51.6" y="80.4" width="3.2" height="3.2"/>
<rect x="54.8" y="80.4" width="3.2" height="3.2"/>
<rect x="74" y="80.4" width="3.2" height="3.2"/>
<rect x="80.4" y="80.4" width="3.2" height="3.2"/>
<rect x="86.8" y="80.4" width="3.2" height="3.2"/>
<rect x="35.6" y="83.6" width="3.2" height="3.2"/>
<rect x="48.4" y="83.6" width="3.2" height="3.2"/>
<rect x="51.6" y="83.6" width="3.2" height="3.2"/>
<rect x="61.2" y="83.6" width="3.2" height="3.2"/>
<rect x="64.4" y="83.6" width="3.2" height="3.2"/>
<rect x="67.6" y="83.6" width="3.2" height="3.2"/>
<rect x="70.8" y="83.6" width="3.2" height="3.2"/>
<rect x="74" y="83.6" width="3.2" height="3.2"/>
<rect x="77.2" y="83.6" width="3.2" height="3.2"/>
<rect x="83.6" y="83.6" width="3.2" height="3.2"/>
<rect x="35.6" y="86.8" width="3.2" height="3.2"/>
<rect x="38.8" y="86.8" width="3.2" height="3.2"/>
<rect x="42" y="86.8" width="3.2" height="3.2"/>
<rect x="58" y="86.8" width="3.2" height="3.2"/>
<rect x="80.4" y="86.8" width="3.2" height="3.2"/>
<rect x="83.6" y="86.8" width="3.2" height="3.2"/>
<rect x="86.8" y="86.8" width="3.2" height="3.2"/>
<path d="M10.68,10C10.3,10,10,10.3,10,10.68v2.52v3.2v3.2v3.2V26v3.2v2.52c0,0.37,0.3,0.68,0.68,0.68h21.04
	c0.37,0,0.68-0.3,0.68-0.68V29.2V26v-3.2v-3.2v-3.2v-3.2v-2.52c0-0.37-0.3-0.68-0.68-0.68C31.72,10,10.68,10,10.68,10z M29.2,16.4
	v3.2v3.2V26v2.81c0,0.22-0.18,0.39-0.39,0.39H13.59c-0.22,0-0.39-0.18-0.39-0.39V26v-3.2v-3.2v-3.2v-2.81
	c0-0.22,0.18-0.39,0.39-0.39h15.22c0.22,0,0.39,0.18,0.39,0.39V16.4z"/>
<path d="M26,22.8v-3.2v-2.52c0-0.37-0.3-0.68-0.68-0.68h-8.24c-0.37,0-0.68,0.3-0.68,0.68v2.52v3.2v2.52c0,0.37,0.3,0.68,0.68,0.68
	h8.24c0.37,0,0.68-0.3,0.68-0.68V22.8z"/>
<path d="M68.28,10c-0.37,0-0.68,0.31-0.68,0.68v2.52v3.2v3.2v3.2V26v3.2v2.52c0,0.37,0.3,0.68,0.68,0.68h21.04
	c0.37,0,0.68-0.3,0.68-0.68V29.2V26v-3.2v-3.2v-3.2v-3.2v-2.52C90,10.3,89.7,10,89.32,10C89.32,10,68.28,10,68.28,10z M86.8,16.4
	v3.2v3.2V26v2.81c0,0.22-0.18,0.39-0.39,0.39H71.19c-0.22,0-0.39-0.18-0.39-0.39V26v-3.2v-3.2v-3.2v-2.81
	c0-0.22,0.18-0.39,0.39-0.39h15.22c0.22,0,0.39,0.18,0.39,0.39V16.4z"/>
<path d="M83.6,22.8v-3.2v-2.52c0-0.37-0.3-0.68-0.68-0.68h-8.24c-0.37,0-0.68,0.3-0.68,0.68v2.52v3.2v2.52C74,25.7,74.3,26,74.68,26
	h8.24c0.37,0,0.68-0.3,0.68-0.68V22.8z"/>
<path d="M10.68,67.6C10.3,67.6,10,67.9,10,68.28v2.52V74v3.2v3.2v3.2v3.2v2.52C10,89.7,10.3,90,10.68,90h21.04
	c0.37,0,0.68-0.3,0.68-0.68V86.8v-3.2v-3.2v-3.2V74v-3.2v-2.52c0-0.37-0.3-0.68-0.68-0.68C31.72,67.6,10.68,67.6,10.68,67.6z
	 M29.2,74v3.2v3.2v3.2v2.81c0,0.22-0.18,0.39-0.39,0.39H13.59c-0.22,0-0.39-0.18-0.39-0.39V83.6v-3.2v-3.2V74v-2.81
	c0-0.22,0.18-0.39,0.39-0.39h15.22c0.22,0,0.39,0.18,0.39,0.39V74z"/>
<path d="M26,80.4v-3.2v-2.52C26,74.3,25.7,74,25.32,74h-8.24c-0.37,0-0.68,0.3-0.68,0.68v2.52v3.2v2.52c0,0.37,0.3,0.68,0.68,0.68
	h8.24c0.37,0,0.68-0.3,0.68-0.68V80.4z"/>
</svg>
